<svg xmlns="http://www.w3.org/2000/svg" version="1.1" xmlns:xlink="http://www.w3.org/1999/xlink" width="600" height="600"><svg version="1.1" width="600" height="600" viewBox="0 0 600 600" id="SvgjsSvg1260" sodipodi:docname="logo_square.svg" inkscape:version="1.4.2 (f4327f4, 2025-05-13)" xmlns:inkscape="http://www.inkscape.org/namespaces/inkscape" xmlns:sodipodi="http://sodipodi.sourceforge.net/DTD/sodipodi-0.dtd" xmlns="http://www.w3.org/2000/svg" xmlns:svg="http://www.w3.org/2000/svg">
  <defs id="SvgjsDefs1259"></defs>
  <sodipodi:namedview id="SvgjsSodipodi:namedview1258" pagecolor="#ffffff" bordercolor="#ffffff" borderopacity="0" inkscape:showpageshadow="2" inkscape:pageopacity="0.0" inkscape:pagecheckerboard="true" inkscape:deskcolor="#ffffff" showgrid="false" inkscape:zoom="3.025" inkscape:cx="300" inkscape:cy="300.16529" inkscape:window-width="3840" inkscape:window-height="2054" inkscape:window-x="-11" inkscape:window-y="-11" inkscape:window-maximized="1" inkscape:current-layer="svg45"></sodipodi:namedview>
  <rect width="600" height="600" x="0" y="0" id="SvgjsRect1257" stroke="transparent" fill="#ffffff" style="display: none; --darkreader-inline-fill: var(--darkreader-text-ffffff, #e8e6e3); --darkreader-inline-stroke: transparent;" data-darkreader-inline-fill="" data-darkreader-inline-stroke=""></rect>
  <svg xml:space="preserve" width="550" height="550" data-version="2" data-id="lg_H17Aa0maK5uZk9dsXV" viewBox="0 0 571 571" x="25" y="25" version="1.1" id="SvgjsSvg1256">
    <circle r="50" fill="none" stroke="#000" paint-order="stroke" transform="matrix(5.5446 0 0 5.5446 285.5 285.5)" id="SvgjsCircle1255" style="--darkreader-inline-stroke: var(--darkreader-text-000000, #e8e6e3);" data-darkreader-inline-stroke=""></circle>
    <rect width="33.48" height="78.192" x="-16.74" y="-39.096" fill="none" rx="0" ry="0" transform="matrix(.159 -1.2941 1.2941 .159 65.153 260.784)" id="SvgjsRect1254"></rect>
    <path d="m87.785 276.78-34.01-6.096q-2.08-.4-3.425 1.038-1.344 1.424-1.943 3.413-.21.539-.694.73-.483.19-.875-.148-.419-.55-.333-1.25l1.803-14.674q.033-.272.172-.544.136-.26.418-.303.46-.22.883.082.424.288.497.875.084 2.204 1.041 3.925.96 1.707 3.039 2.107l36.306 6.443 1.467-11.945q.36-2.938.365-4.684.003-1.734-.546-2.826-.536-1.09-1.89-1.94-1.342-.835-3.702-1.834-.752-.303-.55-1.092.216-.788 1.178-.604l8.128 1.418q1.673.285 1.493 1.747l-4.116 32.335q-.112.92-.996.837-.871-.068-.863-.776-.07-1.138-.36-2.527-.29-1.388-.908-2.45-.603-1.072-1.579-1.258" paint-order="stroke" id="SvgjsPath1253"></path>
    <rect width="36.18" height="78.192" x="-18.09" y="-39.096" fill="none" rx="0" ry="0" transform="matrix(.403 -1.2401 1.2401 .403 74.327 217.087)" id="SvgjsRect1252"></rect>
    <path d="M58.84 226.877q-1.633-.668-2.67.243-1.04.923-2.141 2.498-.266.353-.682.369-.417.015-.633-.206-.27-.307-.256-.604.027-.293.111-.554l3.917-12.054q.088-.273.26-.587.182-.31.561-.339.376-.015.609.28.233.295.26.675-.07 1.608.245 3.342.33 1.725 1.96 2.406 6.544 2.646 12.777 5.11 6.229 2.476 12.194 4.414 4.154 1.35 7.402.554 3.26-.792 5.431-3.13 2.156-2.33 3.155-5.405 1.003-3.088.728-6.207-.284-3.136-2.354-5.88-2.07-2.742-6.27-4.627-5.76-2.53-12.127-4.832-6.36-2.285-13.012-4.597-1.654-.606-2.77.293-1.101.903-2.137 2.486-.265.353-.632.343-.371.003-.587-.218-.291-.245-.277-.542.023-.28.112-.553l3.96-12.191q.085-.26.243-.538.176-.286.555-.313.375-.016.6.304.221.333.249.712-.145 1.584.182 3.322.326 1.738 1.98 2.344 6.336 2.36 12.464 4.68 6.142 2.324 11.85 4.548 4.474 1.756 6.976 4.31 2.502 2.554 3.482 5.573.98 3.02.781 6.246-.202 3.238-1.221 6.376-1.374 4.228-4.315 7.455-2.927 3.23-7.298 4.36-4.37 1.13-10.023-.843-6.082-2.209-11.765-4.425-5.695-2.22-11.874-4.598" paint-order="stroke" id="SvgjsPath1251"></path>
    <rect width="45.36" height="78.192" x="-22.68" y="-39.096" fill="none" rx="0" ry="0" transform="matrix(.691 -1.1057 1.1057 .691 97.332 168.087)" id="SvgjsRect1250"></rect>
    <path d="m136.403 162.137-6.868 10.99q-.145.232-.431.469-.275.243-.705.144-.375-.065-.665-.462-.297-.386-.136-.792.745-2.102.717-3.534-.016-1.425-2.228-2.807l-29.055-17.817 20.086 33.23q-.46 1.941-2.61 1.52l-35.42-6.281 27.138 20.862q2.114 1.66 3.633.903 1.508-.765 2.85-2.248.363-.434.792-.258.421.186.644.494.167.274.069.628t-.243.586l-6.454 10.327q-.414.664-.98.633-.374-.065-.685-.428-.318-.353-.122-.814.62-1.78.75-3.513.137-1.745-2.044-3.446L76.084 179.07q-1.063-.833-2.405-.21-1.335.61-2.819 1.927-.55.487-1.071-.008-.296-.338-.254-.65.03-.32.175-.552l3.586-5.739q1.306-2.09 2.365-2.258 1.058-.169 2.331.058l32.72 5.825-17.931-29.64q-.755-1.301-.965-2.294-.203-1.003.695-2.44l3.69-5.905q.152-.243.427-.486.275-.244.608-.112.804.164.619 1.124-.444 1.645-.471 3.411-.016 1.774 1.531 2.74l29.708 18.226q2.035 1.272 3.522.54 1.498-.724 2.764-1.84.858-.708 1.512.115.43.516-.018 1.235" paint-order="stroke" id="SvgjsPath1249"></path>
    <rect width="33.615" height="78.192" x="-16.808" y="-39.096" fill="none" rx="0" ry="0" transform="matrix(.922 -.922 .922 .922 128.673 128.564)" id="SvgjsRect1248"></rect>
    <path d="m154.78 144.857-10.012 10.013q-.793.792-1.448.193-.645-.59-.249-1.19.646-1.05 1.3-2.147.646-1.088.775-2.213.12-1.116-.82-2.167l-9.12-10.206-25.492-5.67q-2.038-.452-3.043-.554-.986-.101-1.936.148-.738.35-1.549.848-.535.35-1.088-.203-.544-.544.203-1.29l9.856-9.857q.793-.793 1.337-.101.553.7.01 1.245-.803.802-1.596 1.945t-.977 2.065q-.166.922.83 1.217l23.344 5.422-4.13-24.544q-.148-.94-.968-.82-.83.129-1.89.747-1.07.626-2.066 1.42-.756.553-1.3-.047-.544-.599.25-1.392l8.27-8.27q.691-.692 1.235-.092.553.59.101 1.244-.202.295-.414.618-.23.323-.332.72-.295.995-.203 2.046.101 1.042.452 3.089l4.73 27.023 8.869 9.865q.94 1.051 2.038.95 1.097-.101 2.166-.728 1.07-.627 2.02-1.171.69-.397 1.216.276t-.368 1.568" paint-order="stroke" id="SvgjsPath1247"></path>
    <rect width="29.16" height="78.192" x="-14.58" y="-39.096" fill="none" rx="0" ry="0" transform="matrix(1.081 -.7291 .7291 1.081 160.693 102.195)" id="SvgjsRect1246"></rect>
    <path d="M150.062 101.194q1.495 2.215 3.668 2.92 2.167.693 4.965.504 2.798-.188 6.184-.601 2.714-.384 5.399-.67 2.696-.293 5.25-.097 2.547.185 4.756 1.338 2.212 1.134 3.947 3.707 1.889 2.8 1.912 6.354.023 3.555-1.918 7.113-1.93 3.55-6.016 6.307-4.378 2.953-8.555 3.428-4.171.485-7.433-.806-3.243-1.288-4.899-3.742-.94-1.394-.478-2.854.462-1.46 2.05-2.626 1.798-1.37 2.704-.282.502.51.32 1.058-.18.547.21 1.384.913 1.586 3.173 2.861 2.267 1.286 5.273 1.288 3.023.005 6.114-2.08 3.038-2.05 4.185-4.569 1.147-2.52.865-5.082-.288-2.573-1.612-4.652-1.441-2.253-3.975-2.745-2.542-.504-5.657-.132-3.112.353-6.353.84-3.057.364-6.333.498-3.272.115-6.269-.993-3.004-1.12-5.17-4.33-1.735-2.572-1.651-5.9.094-3.334 2.017-6.708 1.924-3.374 5.783-5.977 3.675-2.479 7.109-2.798 3.433-.318 6.04.77 2.598 1.078 3.78 2.83 1.574 2.334-1.201 4.631-1.07.816-1.855.795-.774-.028-1.095-.504-.466-.692-.365-1.358.101-.666-.31-1.159-.493-.847-2.085-1.692-1.585-.834-3.892-.803-2.325.027-4.887 1.755-3.037 2.049-4.134 4.456-1.105 2.397-.847 4.598.258 2.2 1.286 3.725" paint-order="stroke" id="SvgjsPath1245"></path>
    <rect width="16.875" height="78.192" x="-8.438" y="-39.096" fill="none" rx="0" ry="0" transform="matrix(1.1618 -.592 .592 1.1618 186.965 86.501)" id="SvgjsRect1244"></rect>
    <path d="m195.312 108.39-13.84-31.04q-.832-1.947-2.683-2.306-1.84-.365-3.94.31-.576.132-.934-.197-.37-.324-.31-.838.004-.309.235-.544.226-.246.481-.377l13.175-6.713q.313-.16.605-.22.273-.066.56.182.382.29.345.82-.048.537-.483.92-1.664 1.242-2.612 3.028-.949 1.786-.077 3.785l13.742 31.018q.83 1.947 2.688 2.26 1.868.306 3.945-.27.53-.196.91.093.376.277.387.9.002.321-.24.562-.232.235-.476.36l-13.175 6.712q-.697.356-1.195-.02-.358-.213-.362-.767-.004-.554.466-.866 1.722-1.273 2.67-3.059.95-1.785.118-3.733" paint-order="stroke" id="SvgjsPath1243"></path>
    <rect width="36.18" height="78.192" x="-18.09" y="-39.096" fill="none" rx="0" ry="0" transform="matrix(1.2401 -.403 .403 1.2401 218.93 73.47)" id="SvgjsRect1242"></rect>
    <path d="M205.236 108.841q-.183-.31-.156-.69.028-.379.405-.57 1.168-.75 2.124-1.69.943-.938 1.233-3.253l5.522-46.134q2.092-1.283 3.684.874l25.505 34.065q1.171 1.539 2.307 1.87 1.152.338 2.757.255.976.053.941.873.047.355-.218.551-.274.213-.534.297l-12.39 4.025q-.272.089-.631.123-.355.047-.625-.318-.17-.315-.143-.694.028-.379.404-.57 1.973-1.23 3.152-2.285 1.17-1.038.093-2.54l-6.919-9.227-17.945 5.83-1.34 10.938q-.188 1.912.698 2.487.882.564 2.438.456 1.571-.1 3.188-.103.734-.02.711.797.035.359-.293.575-.335.232-.67.341l-12.054 3.916q-.273.089-.632.123-.355.047-.612-.322m11.658-45.014-2.739 22.798 15.874-5.157z" paint-order="stroke" id="SvgjsPath1241"></path>
    <rect width="9.72" height="78.192" x="-4.86" y="-39.096" fill="none" rx="0" ry="0" transform="matrix(1.284 -.2264 .2264 1.284 247.82 66.519)" id="SvgjsRect1240"></rect>
    <path d="M243.235 44.64q1.798-.318 2.92.345.639.39.464 1.203-.185.827-.207 1.903-.013 1.578.185 5.33.198 3.751.801 8 .061.347-.318.6-.381.239-.728.3t-.8-.031q-.443-.107-.504-.454-.95-4.189-1.982-7.793-1.033-3.605-1.572-5.085-.325-1.015-.846-1.718-.518-.69-.04-1.277.816-1.005 2.627-1.324" paint-order="stroke" id="SvgjsPath1239"></path>
    <rect width="29.7" height="78.192" x="-14.85" y="-39.096" fill="none" rx="0" ry="0" transform="matrix(1.302 -.0682 .0682 1.302 272.975 63.706)" id="SvgjsRect1238"></rect>
    <path d="M264.027 57.39q.14 2.67 1.64 4.393 1.5 1.71 3.995 2.99 2.496 1.279 5.61 2.67 2.524 1.068 4.973 2.206 2.462 1.138 4.55 2.621 2.088 1.47 3.388 3.596 1.312 2.112 1.474 5.211.177 3.372-1.635 6.431-1.811 3.059-5.307 5.109-3.483 2.05-8.405 2.307-5.274.276-9.1-1.469-3.824-1.732-5.955-4.519-2.117-2.774-2.271-5.73-.088-1.68 1.06-2.693 1.148-1.013 3.11-1.194 2.246-.248 2.463 1.15.167.697-.27 1.072-.438.375-.533 1.294-.035 1.83 1.245 4.087 1.281 2.27 3.856 3.82 2.589 1.561 6.312 1.366 3.66-.191 5.94-1.76 2.281-1.569 3.36-3.91 1.078-2.355 1.014-4.819-.075-2.673-1.993-4.4-1.919-1.74-4.78-3.027-2.85-1.3-5.879-2.551-2.808-1.263-5.684-2.836-2.865-1.587-4.862-4.08-1.999-2.507-2.201-6.374-.162-3.099 1.623-5.908 1.798-2.81 5.185-4.71 3.386-1.902 8.035-2.145 4.427-.232 7.534 1.263 3.107 1.496 4.78 3.771 1.673 2.263 1.783 4.372.147 2.813-3.415 3.352-1.337.148-1.999-.274-.649-.423-.679-.996-.043-.833.386-1.352.43-.519.332-1.153.014-.98-.916-2.524-.929-1.532-2.922-2.694-2.007-1.174-5.093-1.012-3.659.191-5.839 1.69-2.18 1.485-3.094 3.504-.912 2.02-.816 3.855" paint-order="stroke" id="SvgjsPath1237"></path>
    <rect width="38.07" height="78.192" x="-19.035" y="-39.096" fill="none" rx="0" ry="0" transform="matrix(1.2913 .1815 -.1815 1.2913 317.257 65.334)" id="SvgjsRect1236"></rect>
    <path d="M293.387 69.858q.735-5.23 3.268-9.574 2.532-4.332 6.327-7.354 3.809-3.02 8.337-4.411 4.527-1.392 9.344-.715 3.55.5 7.027 2.094 3.477 1.582 5.98 4.29 2.492 2.695 2.954 6.526.198 1.594-1.256 2.852-1.453 1.244-3.245 1.348-1.63-.019-1.671-1.223-.033-.795.222-1.39.27-.608.225-1.325-.118-4.217-3.251-6.752-3.12-2.532-7.682-2.962-3.235-.31-6.672.629-3.437.939-6.5 3.247-3.064 2.308-5.259 6.121-2.208 3.811-2.972 9.248-.53 3.77.25 7.5.79 3.746 2.73 6.89 1.94 3.156 4.92 5.286 2.968 2.116 6.803 2.655 4.248.597 7.571-.279 3.325-.889 5.479-2.535 2.155-1.659 2.911-3.475.48-1.92.868-3.644.387-1.723.845-3.015.814-2.23 1.922-2.81 1.124-.594 2.01-.903-.762-.108-2.186-.374-1.411-.264-3.154-.509-1.537-.216-3.153-.338-1.628-.123-2.994.04-1.162.114-1.688.58-.525.452-.78.772-.511.64-1.126.421-.613-.23-.437-.917l.83-3.373q.317-1.233 1.428-1.076l15.973 2.245q.826.116.72.878-.04.284-.306.668-.757.894-1.38 2.044-.637 1.162-1.049 2.592-.338 1.374-.78 4.051t-1.33 5.897q-.873 3.222-2.522 6.334-1.761 3.44-5.173 6.45-3.412 3.01-7.972 4.818-4.547 1.81-9.943 1.696-.212-.464-.144-.942.068-.49.447-.937.38-.448 1.334-.59 6.958-1.445 11.378-4.879 4.433-3.433 6.58-8.595-1.815 1.298-4.323 1.907-2.496.61-5.142.7-2.646.088-4.88-.226-6.766-.95-11.522-4.49-4.768-3.554-6.95-9.009-2.181-5.468-1.241-12.157" paint-order="stroke" id="SvgjsPath1235"></path>
    <rect width="37.935" height="78.192" x="-18.968" y="-39.096" fill="none" rx="0" ry="0" transform="matrix(1.2173 .4673 -.4673 1.2173 364.971 77.517)" id="SvgjsRect1234"></rect>
    <path d="M360.018 97.996q-.983-2.57-1.697-5.512-.71-2.954-.81-5.856-.09-2.897.688-5.323 7.246 2.335 11.228.805 3.981-1.53 5.741-5.897 1.687-4.031-.225-7.489-1.918-3.446-7.566-5.614l-8.948-3.435q1.069.564 1.13 1.495.054.915-.288 1.733-.35.802-.429 1.009l-14.219 31.946q-.853 2.004.185 3.157 1.025 1.148 2.348 2.033.3.2.333.589.044.394-.216.671t-.649.198q-.381-.063-.649-.165l-11.771-4.52q-.256-.097-.557-.297-.305-.187-.373-.59.053-.357.313-.634t.677-.201q1.89.209 3.397.103t2.36-2.11l14.145-31.752q.617-1.425.022-2.715-.599-1.277-1.749-2.32-1.146-1.054-2.094-1.711-.583-.447-.168-1.238.41-.778 1.53-.348l16.824 6.458q6.318 2.426 9.196 5.444 2.873 3.03 3.263 6.127.394 3.084-.812 5.862-1.312 3.198-4.07 4.89-2.76 1.693-6.213 2.14-3.455.448-6.933-.133-.458 2.394-.013 5.456.44 3.074 1.611 6.318 1.595 4.467 4.41 8.634 2.813 4.167 6.29 6.717-.022 1.039-1.057 1.48-1.03.428-2.186-.309-4.693-3.31-7.54-7.28-2.853-3.959-4.46-7.816" paint-order="stroke" id="SvgjsPath1233"></path>
    <rect width="17.955" height="78.192" x="-8.978" y="-39.096" fill="none" rx="0" ry="0" transform="matrix(1.1292 .652 -.652 1.1292 398.243 93.121)" id="SvgjsRect1232"></rect>
    <path d="m383.821 111.69 18.495-28.512q1.18-1.757.473-3.505-.696-1.742-2.405-3.136-.425-.41-.344-.89.07-.487.534-.716.26-.166.584-.1.33.055.578.199l12.805 7.393q.305.176.514.387.205.193.153.57-.035.477-.5.735-.477.252-1.034.096-1.949-.719-3.963-.542-2.014.177-3.216 1.998l-18.53 28.416q-1.18 1.758-.43 3.485.76 1.734 2.374 3.163.453.337.418.814-.028.465-.545.814-.268.177-.602.104-.324-.066-.56-.203l-12.806-7.393q-.677-.391-.634-1.014-.016-.416.447-.72.462-.306.98-.082 2.005.751 4.02.574 2.014-.177 3.194-1.934" paint-order="stroke" id="SvgjsPath1231"></path>
    <rect width="45.36" height="78.192" x="-22.68" y="-39.096" fill="none" rx="0" ry="0" transform="matrix(.984 .8555 -.8555 .984 431.408 116.892)" id="SvgjsRect1230"></rect>
    <path d="m431.172 156.416-9.781-8.504q-.207-.18-.395-.5-.198-.309-.032-.718.123-.36.56-.584.427-.233.803-.01 1.96 1.064 3.379 1.261 1.41.206 3.12-1.762l22.147-25.911-35.966 14.64q-1.846-.758-1.094-2.817L425.66 97.51l-24.854 23.54q-1.97 1.83-1.46 3.449.52 1.609 1.775 3.166.372.427.131.823-.25.387-.59.558-.296.123-.63-.03-.334-.152-.54-.331l-9.192-7.99q-.59-.514-.472-1.067.123-.36.53-.61.399-.26.824.007 1.661.891 3.353 1.29 1.701.408 3.723-1.48l25.626-24.648q.99-.92.585-2.342-.395-1.415-1.463-3.087-.395-.62.175-1.056.38-.24.683-.15.31.08.517.26l5.107 4.44q1.86 1.617 1.861 2.689.001 1.072-.422 2.294l-10.874 31.408 32.083-13.074q1.404-.542 2.417-.594 1.023-.044 2.302 1.068l5.255 4.568q.216.188.414.498.197.31.015.618-.288.77-1.208.436-1.555-.695-3.296-.999-1.748-.294-2.946 1.084l-22.65 26.492q-1.575 1.81-1.085 3.394.48 1.593 1.384 3.018.567.959-.35 1.475-.576.346-1.216-.21" paint-order="stroke" id="SvgjsPath1229"></path>
    <rect width="38.34" height="78.192" x="-19.17" y="-39.096" fill="none" rx="0" ry="0" transform="matrix(.748 1.0682 -1.0682 .748 468.114 157.024)" id="SvgjsRect1228"></rect>
    <path d="M448.387 142.454q4.326-3.029 9.186-4.203 4.85-1.168 9.596-.527 4.739.63 8.867 3.024 4.128 2.394 7.037 6.55 2.67 3.813 3.525 8.102.861 4.3-.091 8.532-.942 4.225-3.71 8.025-2.763 3.782-7.345 6.56-4.282 2.728-8.988 3.668-4.725.936-9.261.164t-8.472-3.141q-3.928-2.36-6.673-6.28-3.515-5.02-3.954-10.603-.428-5.59 2.156-10.79 2.594-5.206 8.127-9.08m24.65 31.387q4.55-3.186 7.15-7.41 2.587-4.215 2.662-8.837.083-4.61-2.946-8.936-2.378-3.397-5.742-5.132-3.357-1.725-7.206-1.88-3.842-.143-7.685 1.052-3.862 1.191-7.322 3.614-2.991 2.095-5.307 4.926-2.323 2.82-3.52 6.158-1.186 3.33-.779 6.912.397 3.59 2.858 7.105 2.385 3.407 5.742 5.132 3.364 1.736 7.206 1.88 3.841.143 7.685-1.052 3.861-1.191 7.205-3.532" paint-order="stroke" id="SvgjsPath1227"></path>
    <rect width="17.415" height="78.192" x="-8.708" y="-39.096" fill="none" rx="0" ry="0" transform="matrix(.5716 1.172 -1.172 .5716 486.964 188.385)" id="SvgjsRect1226"></rect>
    <path d="m464.778 196.033 31.277-13.297q1.962-.797 2.353-2.642.397-1.833-.241-3.945-.123-.578.213-.93.33-.365.843-.295.309.008.54.244.243.23.368.488l6.483 13.29q.154.316.21.608.06.275-.193.558-.295.376-.825.33-.536-.058-.91-.499-1.215-1.685-2.984-2.665t-3.783-.142l-31.253 13.198q-1.962.797-2.306 2.648-.34 1.863.2 3.95.187.533-.108.91-.284.37-.908.37-.32-.004-.557-.251-.231-.236-.351-.482l-6.482-13.29q-.343-.703.04-1.195.22-.353.774-.348.554.006.858.48 1.242 1.745 3.011 2.725 1.77.98 3.73.182" paint-order="stroke" id="SvgjsPath1225"></path>
    <rect width="37.935" height="78.192" x="-18.968" y="-39.096" fill="none" rx="0" ry="0" transform="matrix(.3813 1.247 -1.247 .3813 500.307 222.155)" id="SvgjsRect1224"></rect>
    <path d="M481.12 230.86q1.42-2.356 3.299-4.73 1.89-2.378 4.115-4.244 2.228-1.854 4.618-2.735 2.622 7.148 6.279 9.343 3.657 2.195 8.181.893 4.216-1.152 5.763-4.789 1.534-3.632-.235-9.418l-2.802-9.165q.213 1.19-.483 1.811-.687.606-1.543.84-.846.218-1.058.283l-33.927 8.465q-2.105.561-2.374 2.09-.273 1.514-.156 3.101.028.36-.26.625-.282.277-.661.243-.379-.034-.555-.39-.186-.338-.27-.612l-3.686-12.058q-.08-.262-.109-.622-.04-.355.235-.658.314-.177.693-.143.378.034.575.41 1 1.617 2.01 2.74 1.012 1.122 3.117.56l33.727-8.403q1.503-.392 2.153-1.654.638-1.259.75-2.807.126-1.551.06-2.704-.006-.734.872-.894.866-.155 1.217.992l5.269 17.232q1.979 6.472 1.372 10.598-.619 4.13-2.819 6.343-2.188 2.21-5.118 2.97-3.328.935-6.36-.197-3.032-1.132-5.512-3.578-2.48-2.446-4.163-5.544-2.168 1.113-4.307 3.348-2.151 2.24-3.986 5.16-2.538 4.007-4.089 8.79-1.55 4.783-1.419 9.092-.832.623-1.817.078-.972-.548-1.103-1.912-.281-5.736 1.094-10.424 1.363-4.685 3.413-8.325" paint-order="stroke" id="SvgjsPath1223"></path>
    <rect width="27.945" height="78.192" x="-13.973" y="-39.096" fill="none" rx="0" ry="0" transform="matrix(.1363 1.2967 -1.2967 .1363 508.564 264.347)" id="SvgjsRect1222"></rect>
    <path d="m480.263 281.91-3.177-31.604q-.065-.622.547-.91.208-.021.531.063.335.07.429.335.179.335.28.679l.21.62q.396 1.02 1.455 2.364 1.057 1.331 2.466 1.262l35.844-1.865q1.824-.113 2.701-1.87.878-1.758 1.13-3.345.19-.937 1-.603.364.106.483.487.106.382.134.655l3.395 30.937q.184 1.751-1.638 1.877l-8.24.433q-.993.039-1.077-.765-.085-.804.536-1.013 3.157-.896 4.657-1.84 1.489-.93 1.826-2.84.324-1.91-.09-5.838l-1.463-13.927q-.088 1.78-1.263 2.073-1.174.307-2.233.34l-15.343.838.898 8.546q.272 2.58 1.123 3.946.852 1.366 2.62 2.098.607.29.607 1.037.011.733-1.124.787l-7.875.408q-1.137.04-1.171-.664-.035-.704.416-1.027 1.54-.948 2.23-2.358.703-1.424.445-3.875l-.92-8.753-19.424 1.045 1.229 11.696q.412 3.93 1.036 5.87.638 1.952 2.267 2.738 1.643.784 5.01 1.138.65.076.631.89-.032.817-1.011.854l-7.955.404q-1.135.053-1.587-.253-.465-.305-.545-1.07" paint-order="stroke" id="SvgjsPath1221"></path>
    <rect width="20.52" height="36.396" x="-10.26" y="-18.198" fill="none" rx="0" ry="0" transform="matrix(.403 1.2401 -1.2401 .403 70.61 354.364)" id="SvgjsRect1220"></rect>
    <path d="m74.19 364.43.089.273-5.375 1.307q-1.737-.409-3.28-1.36-1.548-.965-2.785-2.537-1.241-1.585-1.99-3.892-1.096-3.497-.478-6.7.635-3.195 2.868-5.607 2.232-2.412 5.953-3.62 3.646-1.185 6.862-.57 3.22.626 5.631 2.859 2.412 2.232 3.609 5.916.806 2.48.797 4.69 0 2.194-.5 3.988l-4.508 2.205-.097-.298q2.71-1.703 3.498-4.468.784-2.778-.195-5.791-.959-2.952-3.049-4.658-2.09-1.707-4.97-2.087-2.887-.365-6.235.723-3.349 1.088-5.471 3.08-2.13 2.008-2.84 4.597-.712 2.576.129 5.415.773 2.381 2.323 4.112 1.537 1.736 4.018 2.451 2.469.72 5.996-.028" paint-order="stroke" id="SvgjsPath1219"></path>
    <rect width="22.613" height="36.396" x="-11.306" y="-18.198" fill="none" rx="0" ry="0" transform="matrix(.551 1.1817 -1.1817 .551 80.843 380.486)" id="SvgjsRect1218"></rect>
    <path d="M94.457 373.813q1.592 3.415 1.346 6.68-.247 3.266-2.187 5.926-1.945 2.677-5.42 4.297-3.474 1.62-6.775 1.39-3.284-.224-5.944-2.135-2.66-1.91-4.253-5.325-1.576-3.38-1.33-6.645.253-3.254 2.187-5.926 1.946-2.676 5.42-4.297 3.474-1.62 6.775-1.39 3.29.236 5.945 2.135 2.66 1.91 4.236 5.29M72.18 384.2q1.268 2.718 3.557 4.11 2.283 1.41 5.2 1.431 2.922.005 6.112-1.483 3.191-1.488 5.066-3.73 1.858-2.247 2.246-4.902.405-2.649-.862-5.367-1.251-2.682-3.54-4.075-2.278-1.398-5.194-1.42-2.928-.015-6.119 1.472-3.19 1.488-5.06 3.741-1.859 2.248-2.252 4.891-.405 2.65.846 5.332" paint-order="stroke" id="SvgjsPath1217"></path>
    <rect width="21.263" height="36.396" x="-10.631" y="-18.198" fill="none" rx="0" ry="0" transform="matrix(.691 1.1057 -1.1057 .691 94.443 405.505)" id="SvgjsRect1216"></rect>
    <path d="m102.434 390.624 4.194 6.712q1.997 3.195 2.21 6.414.194 3.215-1.311 6.046-1.506 2.832-4.646 4.794-3.129 1.956-6.323 2.06-3.194.105-6.009-1.472-2.822-1.588-4.819-4.784l-3.987-6.38.875-.592.401.64 1.009 1.615 1.202 1.924.995 1.592.4.642q1.61 2.576 3.986 3.72 2.376 1.145 5.184.866 2.82-.286 5.684-2.075 2.863-1.79 4.356-4.199 1.482-2.401 1.488-5.05-.001-2.659-1.59-5.202l-.415-.663-1.05-1.68-1.25-2.002-1.051-1.68-.429-.686zm-.69-1.106 1.208 1.935-20.898 13.059-1.209-1.935zm-18.72 11.698.055.088-2.178 1.361-1.493-2.388.299-.186.124.199.117.188q.484.774 1.382.981.899.207 1.694-.243m18.774-11.61-2.178 1.362-.055-.089q.774-.483.974-1.393.194-.92-.29-1.694l-.11-.177-.11-.177.277-.22z" paint-order="stroke" id="SvgjsPath1215"></path>
    <rect width="8.572" height="36.396" x="-4.286" y="-18.198" fill="none" rx="0" ry="0" transform="matrix(.7847 1.0413 -1.0413 .7847 105.576 421.492)" id="SvgjsRect1214"></rect>
    <path d="m116.434 411.536 1.373 1.822-19.68 14.83-1.374-1.822zm-17.63 13.285.064.083-2.052 1.546-1.695-2.25.281-.211.142.187.133.177q.55.73 1.462.857.913.129 1.666-.39m17.693-13.202-2.052 1.546-.062-.083q.705-.58.833-1.494.129-.913-.42-1.642l-.134-.177-.141-.187.28-.212zm-18.433 16.486 2.051-1.545.063.083q-.705.58-.834 1.493-.128.913.421 1.642l.126.167.149.198-.281.212zm17.692-13.201-.063-.083 2.051-1.546 1.695 2.249-.28.212q-.017-.02-.15-.198l-.125-.167q-.55-.728-1.463-.857-.913-.128-1.665.39" paint-order="stroke" id="SvgjsPath1213"></path>
    <rect width="22.68" height="36.396" x="-11.34" y="-18.198" fill="none" rx="0" ry="0" transform="matrix(.8724 .969 -.969 .8724 118.514 437.164)" id="SvgjsRect1212"></rect>
    <path d="m119.785 421.65 2.65-2.825-2.532 29.808-2.639 2.797zm-14.208 12.32.07.077-1.86 1.675-1.955-2.17.262-.236.21.232.235.262q.585.649 1.487.696.892.056 1.551-.537m1.012 1.123.07.078q-.659.593-.705 1.477-.047.902.537 1.551l.236.262.218.242-.262.236-1.954-2.17zm15.61-16.53.236.262-.425 2.47-17.211 15.55-1.082-1.2 15.435-13.899q1.337-1.204 2.193-2.202zm12.69 14.874 1.056 1.172-15.328 13.802q-.843.76-1.556 1.507-.732.746-1.155 1.25l-.432.495-.21-.233.33-2.42zm.986 1.095 1.955 2.17-.262.236-.21-.233-.209-.232q-.593-.66-1.476-.724-.884-.046-1.588.536l-.07-.078zm-3.158-2.981.262-.236 1.954 2.17-1.86 1.676-.044-.049q.652-.64.707-1.514.037-.875-.574-1.553l-.21-.233z" paint-order="stroke" id="SvgjsPath1211"></path>
    <rect width="20.992" height="36.396" x="-10.496" y="-18.198" fill="none" rx="0" ry="0" transform="matrix(.984 .8555 -.8555 .984 138.865 456.978)" id="SvgjsRect1210"></rect>
    <path d="m146.799 464.037-3.816 4.389q-1.303.267-3.029.165-1.717-.11-3.676-.898-1.95-.779-3.977-2.541-2.789-2.476-3.891-5.56-1.093-3.076-.422-6.293.672-3.217 3.187-6.11 2.515-2.893 5.625-4.025 3.1-1.123 6.298-.468 3.208.663 6.022 3.11 1.466 1.274 2.432 2.528.947 1.256 1.533 2.49.585 1.235.916 2.404l-2.728 4.211-.236-.205q.95-1.887.94-3.744-.008-1.839-.898-3.598-.89-1.758-2.652-3.29-2.234-1.941-4.901-2.291-2.67-.368-5.352.79-2.691 1.168-5.001 3.825-2.31 2.657-3.092 5.484-.774 2.818-.03 5.4.735 2.573 2.943 4.545 1.171 1.018 2.492 1.665 1.322.665 2.73.974 1.4.318 2.772.25l4.108-4.687q1.044-1.2-.304-2.373l-.423-.367.222-.256 5.206 4.525-.222.256-.404-.35q-1.378-1.198-2.372.045" paint-order="stroke" id="SvgjsPath1209"></path>
    <rect width="15.593" height="36.396" x="-7.796" y="-18.198" fill="none" rx="0" ry="0" transform="matrix(1.1057 .691 -.691 1.1057 165.499 476.438)" id="SvgjsRect1208"></rect>
    <path d="m168.187 460.827 1.935 1.21-13.059 20.897-1.935-1.209zm-10.632 21.123 8.149 5.093-.58.928-8.15-5.092zm6.135-9.818 6.867 4.29-.56.896-6.866-4.29zm6.343-10.15 8.15 5.092-.581.928-8.15-5.092zm-.364 22.111.298.187-4.755 3.747-4.954-3.096 1.653-.258q1.593.995 2.892 1.13 1.306.124 2.496-.378 1.19-.501 2.37-1.332m-1.362-7.908 1.725 1.078-1.23 1.968-.299-.187.284-.453q.373-.597.233-1.284-.15-.694-.748-1.067zm3.147-1.862.298.187-1.23 1.968-1.725-1.078.035-.055q.618.34 1.307.17.679-.175 1.052-.772zm4.147-7.694 2.056 1.285-1.492 2.388-.299-.186.339-.542q.449-.719.276-1.55-.184-.837-.915-1.34zm2.92-.097-.546.873-3.43-2.605q.652.408 1.448.782.785.368 1.48.633.706.273 1.048.317m-22.032 13.015.089.055-1.362 2.179-2.388-1.493.187-.298.199.124.188.117q.774.484 1.672.277.898-.208 1.415-.96m11.786-18.664-1.361 2.178-.088-.055q.483-.774.265-1.68-.23-.912-1.004-1.395l-.177-.11-.177-.111.154-.32z" paint-order="stroke" id="SvgjsPath1207"></path>
    <rect width="22.41" height="36.396" x="-11.205" y="-18.198" fill="none" rx="0" ry="0" transform="matrix(1.172 .5716 -.5716 1.172 186.962 488.476)" id="SvgjsRect1206"></rect>
    <path d="m182.487 473.692 1.4-3.612 8.818 28.587-1.4 3.583zm-8.559 16.745.094.045-1.098 2.25-2.625-1.28.155-.316.28.137.317.154q.785.383 1.64.09.848-.283 1.237-1.08m1.36.663.093.046q-.388.796-.1 1.633.294.855 1.08 1.238l.316.154.293.143-.155.316-2.625-1.28zm8.282-21.175.317.155.531 2.45-10.134 20.866-1.453-.71 9.106-18.668q.789-1.618 1.208-2.864zm17.339 9.038 1.418.692-9.043 18.54q-.498 1.02-.879 1.98-.399.966-.602 1.592l-.216.62-.281-.137-.6-2.368zm1.324.646 2.625 1.28-.154.317-.281-.137-.282-.138q-.796-.388-1.64-.118-.836.289-1.272 1.092l-.093-.046zm-4.045-1.582.154-.316 2.625 1.28-1.097 2.25-.059-.028q.365-.837.089-1.669-.294-.825-1.114-1.225l-.282-.137z" paint-order="stroke" id="SvgjsPath1205"></path>
    <rect width="19.98" height="36.396" x="-9.99" y="-18.198" fill="none" rx="0" ry="0" transform="matrix(1.2328 .4245 -.4245 1.2328 212.465 499.079)" id="SvgjsRect1204"></rect>
    <path d="m222.99 502.392.272.093-2.19 5.08q-1.373 1.14-3.062 1.8-1.7.655-3.701.697-2.013.038-4.306-.752-3.451-1.23-5.638-3.651-2.17-2.43-2.752-5.664-.582-3.235.692-6.933 1.248-3.625 3.674-5.823 2.438-2.195 5.672-2.777 3.235-.583 6.896.678 2.466.85 4.226 2.186 1.751 1.32 2.883 2.8l-.952 4.926-.296-.102q.271-3.188-1.463-5.482-1.746-2.297-4.742-3.329-2.934-1.01-5.555-.368-2.62.642-4.657 2.712-2.029 2.087-3.175 5.416-1.146 3.328-.833 6.222.322 2.91 1.963 5.034 1.628 2.119 4.401 3.156 2.367.816 4.682.62 2.311-.183 4.376-1.734 2.06-1.538 3.586-4.805" paint-order="stroke" id="SvgjsPath1203"></path>
    <rect width="21.938" height="36.396" x="-10.969" y="-18.198" fill="none" rx="0" ry="0" transform="matrix(1.2753 .271 -.271 1.2753 238.799 506.4)" id="SvgjsRect1202"></rect>
    <path d="m248.264 493.42 2.232.475L245.372 518l-2.232-.474zm-16.325-3.469 2.232.474-5.123 24.104-2.232-.474zm-.593 12.07 14.743 3.134-.22 1.033-14.742-3.133zm-3.996 9.522.102.021-.534 2.513-2.755-.586.073-.344.23.049.217.046q.892.19 1.666-.313.773-.502 1-1.386m4.691-21.57-.534 2.512-.102-.022q.152-.9-.35-1.674-.503-.773-1.395-.963l-.217-.046-.23-.048.074-.345zm-3.095 24.535.534-2.513.102.022q-.152.9.35 1.674.502.773 1.395.963l.204.043.243.052-.074.344zm4.691-21.57-.102-.022.534-2.512 2.755.585-.073.345-.243-.052-.204-.043q-.892-.19-1.666.312-.773.502-1 1.387m10.037 22.074.102.022-.534 2.513-2.754-.586.073-.344.242.051.204.044q.893.19 1.679-.31.799-.497.988-1.39m4.692-21.57-.534 2.513-.102-.022q.19-.892-.338-1.671-.515-.776-1.408-.966l-.204-.043-.242-.052.073-.344zm-3.096 24.536.534-2.513.102.022q-.151.9.35 1.674.503.773 1.396.963l.23.049.216.046-.073.344zm4.692-21.57-.103-.022.535-2.512 2.754.585-.073.344-.217-.046-.23-.048q-.892-.19-1.665.312t-1.001 1.387" paint-order="stroke" id="SvgjsPath1201"></path>
    <rect width="19.238" height="36.396" x="-9.619" y="-18.198" fill="none" rx="0" ry="0" transform="matrix(1.299 .1137 -.1137 1.299 265.586 510.427)" id="SvgjsRect1200"></rect>
    <path d="m265.357 498.554.993-3.277 8.205 25.744-2.975-.26zm-10.509 18.373 2 .175q-.308.68-.182 1.188.14.497.518.805.38.295.796.331l.325.029-.031.35-7.053-.617.03-.35.156.013.156.014q.806.07 1.72-.36.902-.432 1.565-1.578m11.19-21.677.312.027.11 2.483-10.775 21.714-2.104-.184 10.843-20.543.232-.412q.233-.424.549-1.038.314-.6.561-1.181.248-.58.273-.866m-7.069 14.97 10.976.96-.092 1.053-10.976-.961zm11.934 8.112 2.884.253q.415 1.24 1.254 1.824.825.583 1.63.653l.144.013.143.012-.031.351-7.885-.69.031-.35.312.027q.662.058 1.246-.48.57-.526.272-1.613" paint-order="stroke" id="SvgjsPath1199"></path>
    <rect width="22.68" height="36.396" x="-11.34" y="-18.198" fill="none" rx="0" ry="0" transform="matrix(1.3036 -.0228 .0228 1.3036 292.347 511.513)" id="SvgjsRect1198"></rect>
    <path d="m281.472 500.376-.394-3.853 20.836 21.465.38 3.827zm-.023 18.805.104-.002.044 2.503-2.92.051-.006-.352.312-.005.352-.007q.874-.015 1.502-.665.627-.637.612-1.523m1.512-.027.104-.002q.016.887.653 1.502.65.627 1.523.612l.352-.006.326-.006.006.352-2.92.051zm-2.235-22.625.352-.006 1.586 1.941.445 23.191-1.616.029-.364-20.767q-.031-1.8-.224-3.1zm19.551.18 1.577-.028.361 20.624q.02 1.134.116 2.162.084 1.042.187 1.692l.09.65-.314.006-1.61-1.836zm1.473-.026 2.92-.051.006.352-.312.005-.313.006q-.887.015-1.515.64-.615.636-.638 1.549l-.104.002zm-4.322.428-.006-.352 2.92-.052.044 2.503-.065.002q-.055-.912-.679-1.527-.636-.602-1.549-.586l-.313.005z" paint-order="stroke" id="SvgjsPath1197"></path>
    <rect width="16.672" height="36.396" x="-8.336" y="-18.198" fill="none" rx="0" ry="0" transform="matrix(1.2913 -.1815 .1815 1.2913 318.164 509.252)" id="SvgjsRect1196"></rect>
    <path d="m314.386 495.08 2.26-.318 3.416 24.302-2.26.317zm-8.98 1.117 20.181-2.836.147 1.045-20.182 2.837zm17.912-1.556 2.402-.338.397 2.828-.354.01-.083-.594q-.122-.865-.812-1.374-.69-.508-1.535-.429zm2.182-1.9.142 1.007-4.303.21q.762-.107 1.6-.33.85-.225 1.553-.47.718-.232 1.008-.417m-8.055 24.096.103-.014.358 2.544-2.79.392-.049-.349.233-.033.22-.03q.903-.127 1.458-.864.555-.736.467-1.646m2.514 2.241-.358-2.544.103-.014q.166.898.903 1.453.736.555 1.64.428l.232-.033.22-.03.049.348zm-14.421-21.938 2.401-.338.015.104q-.86.16-1.37.838-.51.677-.39 1.542l.084.594-.343.088zm-.078-.555-.142-1.007q.369.093 1.097.122.743.04 1.623.022.892-.02 1.615-.122z" paint-order="stroke" id="SvgjsPath1195"></path>
    <rect width="24.84" height="36.396" x="-12.42" y="-18.198" fill="none" rx="0" ry="0" transform="matrix(1.2594 -.3374 .3374 1.2594 344.703 503.864)" id="SvgjsRect1194"></rect>
    <path d="m345.53 512.192 4.18-25.363.874 2.209-3.434 21.29-.11.65q-.096.646-.157 1.526-.052.865.04 1.61l-.34.09zm-11.642 2.242.743-.2.665 2.482-3.778 1.012-.092-.34.29-.077.265-.071q.919-.247 1.472-1.002.57-.747.435-1.804m1.644.14.227-.06.02.075.027.1q.145.542.67.888.515.36 1.056.216l.504-.135.081.302-2.065.553zm-1.256 2.415-3.685-25.038.34-.09 1.22 1.832 3.964 22.804zm-2.965-21.14-.38-3.989 15.474 18.559.178 3.786zm18.398-9.02.302-.081 9.428 23.5-2.644.708-7.398-20.102zm8.71 23.691-.665-2.48.718-.193q.437.976 1.304 1.338.87.374 1.751.138l.277-.074.265-.07.09.34zm-2.32-1.457.239-.064.52 1.94-2.079.557-.08-.303.516-.138q.58-.155.82-.72.256-.554.11-1.095l-.026-.101z" paint-order="stroke" id="SvgjsPath1193"></path>
    <rect width="15.593" height="36.396" x="-7.796" y="-18.198" fill="none" rx="0" ry="0" transform="matrix(1.209 -.4884 .4884 1.209 369.823 495.572)" id="SvgjsRect1192"></rect>
    <path d="m358.773 484.221 2.116-.855 9.231 22.85-2.115.855zm10.84 21.019 8.91-3.6.41 1.015-8.91 3.6zm-4.337-10.736 7.508-3.033.396.979-7.508 3.033zm-4.484-11.099 8.91-3.6.41 1.016-8.91 3.6zm17.676 13.293.326-.132.237 6.05-5.417 2.188.763-1.489q1.74-.703 2.614-1.675.868-.983 1.162-2.241.293-1.258.315-2.701m-7.199-3.547 1.886-.762.87 2.152-.327.132-.2-.495q-.264-.653-.902-.944-.65-.286-1.302-.022zm.343-3.64.327-.132.87 2.152-1.887.762-.024-.06q.638-.3.907-.958.257-.652-.007-1.305zm-3.787-7.878 2.249-.909 1.055 2.612-.327.132-.24-.593q-.317-.786-1.09-1.134-.786-.344-1.623-.048zm1.638-2.42.386.955-4.124 1.245q.713-.289 1.484-.713.759-.419 1.382-.825.636-.412.872-.662m-2.42 25.476.096-.039.963 2.382-2.612 1.055-.132-.327.218-.088.205-.083q.847-.342 1.207-1.19.36-.849.055-1.71m-8.173-20.507.962 2.382-.097.039q-.341-.847-1.202-1.202-.873-.35-1.72-.008l-.193.078-.193.078-.168-.312z" paint-order="stroke" id="SvgjsPath1191"></path>
    <rect width="22.41" height="36.396" x="-11.205" y="-18.198" fill="none" rx="0" ry="0" transform="matrix(1.1512 -.6122 .6122 1.1512 392.248 485.306)" id="SvgjsRect1190"></rect>
    <path d="m377.658 480.238-2.1-3.255 28.31 9.666 2.076 3.238zm8.517 16.766.092-.05 1.175 2.21-2.579 1.372-.165-.31.276-.148.311-.165q.772-.41 1.036-1.274.27-.853-.146-1.635m1.335-.71.092-.05q.416.783 1.263 1.042.864.264 1.635-.146l.311-.165.288-.153.165.31-2.579 1.372zm-12.263-19.145.31-.166 2.295 1.01 10.925 20.462-1.427.759-9.752-18.339q-.845-1.589-1.607-2.66zm17.502-8.717 1.393-.74 9.684 18.212q.533 1.001 1.086 1.874.547.89.934 1.423l.375.54-.277.146-2.268-.905zm1.3-.691 2.58-1.372.165.311-.277.147-.276.147q-.783.416-1.06 1.257-.258.847.136 1.671l-.092.049zm-3.656 2.343-.166-.31 2.58-1.372 1.175 2.21-.058.03q-.463-.787-1.298-1.052-.84-.247-1.646.182l-.276.147z" paint-order="stroke" id="SvgjsPath1189"></path>
    <rect width="16.672" height="36.396" x="-8.336" y="-18.198" fill="none" rx="0" ry="0" transform="matrix(1.081 -.7291 .7291 1.081 413.95 472.372)" id="SvgjsRect1188"></rect>
    <path d="m404.342 461.291 1.892-1.276 13.722 20.344-1.891 1.276zm-7.582 4.942 16.895-11.397.591.876-16.895 11.396zm15.417-9.252 2.01-1.356 1.598 2.368-.314.164-.336-.497q-.488-.724-1.332-.879-.843-.155-1.567.287zm1.128-2.664.57.843-3.776 2.075q.638-.43 1.293-.998.666-.575 1.191-1.102.543-.524.722-.818m3.323 25.188.087-.058 1.436 2.13-2.335 1.574-.196-.292.194-.131.184-.124q.757-.51.932-1.415.176-.905-.302-1.684m3.242.912-1.436-2.13.086-.058q.543.735 1.448.91.905.177 1.662-.334l.194-.131.184-.124.197.292zm-22.577-13.395 2.01-1.356.059.086q-.703.521-.865 1.354-.161.832.327 1.556l.336.498-.27.229zm-.314-.465-.568-.843q.372-.078 1.039-.371.686-.29 1.468-.692.793-.409 1.399-.817z" paint-order="stroke" id="SvgjsPath1187"></path>
    <rect width="14.58" height="36.396" x="-7.29" y="-18.198" fill="none" rx="0" ry="0" transform="matrix(.969 -.8724 .8724 .969 437.09 454.19)" id="SvgjsRect1186"></rect>
    <path d="m423.316 446.863 1.696-1.527 16.49 18.313-1.697 1.526zm9.627 7.437 6.018-5.417.706.784-6.017 5.418zm-8.009-8.894 7.141-6.43.733.814-7.14 6.43zm13.178 5.574 1.512-1.361 1.553 1.725-.262.235-.358-.397q-.47-.523-1.17-.578-.708-.047-1.231.424zm-.922-3.538.261-.236 1.553 1.725-1.511 1.361-.044-.048q.497-.5.525-1.21.018-.7-.453-1.224zm-5.992-6.343 1.54-1.387 1.57 1.744-.26.236-.35-.388q-.47-.523-1.189-.56-.718-.038-1.241.433zm.45-2.598.69.765-3.45 2.58q.571-.515 1.15-1.177.57-.653 1.017-1.248.456-.604.593-.92m6.439 24.766.077-.07 1.719 1.909-2.093 1.884-.235-.262.174-.157.165-.148q.678-.61.726-1.531.048-.921-.533-1.625m-14.693-16.474 1.719 1.909-.078.07q-.61-.679-1.541-.718-.94-.031-1.618.58l-.155.14-.155.139-.265-.236zm18.03 16.925-1.72-1.908.078-.07q.64.652 1.56.7.922.048 1.6-.562l.155-.14.184-.166.235.262z" paint-order="stroke" id="SvgjsPath1185"></path>
    <rect width="22.073" height="36.396" x="-11.036" y="-18.198" fill="none" rx="0" ry="0" transform="matrix(.8724 -.969 .969 .8724 454.062 437.394)" id="SvgjsRect1184"></rect>
    <path d="M442.836 427.208q2.521-2.8 5.624-3.849 3.102-1.049 6.308-.303 3.224.745 6.072 3.31 2.85 2.565 3.927 5.694 1.077 3.11.358 6.305t-3.24 5.995q-2.495 2.772-5.598 3.82-3.093 1.04-6.308.303-3.224-.745-6.073-3.31-2.848-2.565-3.926-5.693-1.068-3.12-.358-6.306.719-3.195 3.214-5.966m18.264 16.446q2.007-2.229 2.394-4.88.406-2.653-.714-5.345-1.138-2.692-3.754-5.047-2.616-2.356-5.412-3.206-2.795-.833-5.39-.152-2.597.662-4.603 2.891-1.98 2.2-2.368 4.85-.397 2.644.723 5.336 1.129 2.701 3.745 5.057 2.616 2.356 5.42 3.196 2.795.833 5.382.162 2.597-.663 4.577-2.862" paint-order="stroke" id="SvgjsPath1183"></path>
    <rect width="17.753" height="36.396" x="-8.876" y="-18.198" fill="none" rx="0" ry="0" transform="matrix(.7664 -1.0549 1.0549 .7664 470.423 417.511)" id="SvgjsRect1182"></rect>
    <path d="m455.282 413.403 2.92-4.019q.936-1.287 2.056-2.052 1.128-.777 2.338-.977 1.217-.212 2.484.129 1.265.322 2.52 1.234 1.361.989 2.149 2.545.788 1.555.771 3.22-.016 1.663-1.013 3.035.553-.34 1.579-.465 1.026-.125 1.91-.144l.834.027q.843.016 2.056.01 1.23-.008 2.43-.039 1.207-.042 1.967-.134 1.036-.118 1.935-.335.9-.217 1.675-.685.767-.458 1.373-1.29l.285.206-1.142 1.572q-.95 1.308-2.049 1.977-1.09.658-2.146.89-1.055.233-1.933.288-.167.007-1 0-.813-.012-1.956-.036-1.132-.017-2.246-.037l-1.91-.033q-.795-.014-.918-.023-1.108.017-2.185.234-1.073.235-1.633 1.005l-.285-.207.333-.435q.332-.435.771-1.084.505-.761.94-1.782.444-1.032.381-2.254-.073-1.23-1.058-2.558-.255-.315-.681-.705-.429-.408-.906-.706-1.963-1.378-3.803-1.264-1.847.124-3.1 1.648-.627.753-1.23 1.604-.592.86-1.006 1.43l-.414.569q-.031-.023-.288-.113-.275-.087-.54-.167zm-1.073 1.477 1.342-1.846 19.936 14.485-1.34 1.846zm17.86 12.975.06-.084 2.079 1.51-1.656 2.278-.285-.207.138-.19.13-.179q.537-.738.393-1.649-.144-.91-.86-1.479m-17.798-13.06 2.078 1.51-.061.085q-.762-.505-1.672-.361-.911.144-1.448.883l-.13.179-.138.19-.285-.207zm21.155 12.809-2.078-1.51.061-.085q.739.537 1.665.372.918-.155 1.455-.894l.122-.168.13-.18.285.207z" paint-order="stroke" id="SvgjsPath1181"></path>
    <rect width="19.238" height="36.396" x="-9.619" y="-18.198" fill="none" rx="0" ry="0" transform="matrix(.6122 -1.1512 1.1512 .6122 487.81 389.562)" id="SvgjsRect1180"></rect>
    <path d="m476.79 385.133-2.627-2.195 26.902 2.507-1.402 2.636zm12.807 16.852.942-1.773q.506.55 1.023.632.511.066.943-.162.42-.235.616-.603l.153-.288.31.165-3.323 6.251-.311-.165.073-.138.074-.138q.38-.714.34-1.724-.044-.999-.84-2.057m-15.581-18.77.147-.277 2.328.87 15.777 18.402-.991 1.865-14.673-18.007-.288-.375q-.3-.38-.742-.911-.43-.524-.867-.978-.438-.455-.691-.59m11.017 12.356 5.173-9.728.932.496-5.173 9.728zm12.13-7.815 1.36-2.556q1.303.103 2.168-.441.86-.533 1.24-1.246l.067-.127.067-.127.31.166-3.715 6.988-.311-.166.147-.276q.312-.587.045-1.335-.262-.73-1.378-.88" paint-order="stroke" id="SvgjsPath1179"></path>
    <rect width="15.188" height="36.396" x="-7.594" y="-18.198" fill="none" rx="0" ry="0" transform="matrix(.4884 -1.209 1.209 .4884 497.113 369.2)" id="SvgjsRect1178"></rect>
    <path d="m481.37 369.02.856-2.117 22.85 9.232-.855 2.116zm22.65 6.801 3.6-8.91 1.016.41-3.6 8.91zm.007-12.302.132-.327 4.516 4.033-2.188 5.416-.542-1.583q.704-1.74.611-3.044-.104-1.308-.805-2.392-.701-1.085-1.724-2.103m-2.188 13.77.039-.097 2.382.962-1.055 2.611-.327-.131.088-.218.083-.206q.342-.846-.018-1.695-.36-.848-1.192-1.227m-20.429-8.367 2.382.963-.04.096q-.86-.305-1.709.055-.849.36-1.19 1.207l-.084.205-.088.218-.326-.132zm3.197-1.056-.039.096-2.381-.962 1.055-2.611.326.132-.093.23-.078.193q-.342.846.018 1.695.36.849 1.192 1.227" paint-order="stroke" id="SvgjsPath1177"></path>
    <rect width="14.783" height="36.396" x="-7.391" y="-18.198" fill="none" rx="0" ry="0" transform="matrix(.3813 -1.247 1.247 .3813 503.616 350.743)" id="SvgjsRect1176"></rect>
    <path d="m487.995 351.682.667-2.182 23.567 7.206-.667 2.182zm23.156 4.803 2.81-9.19 1.048.32-2.81 9.19zm-1.065-12.256.103-.337 4.85 3.624-1.708 5.586-.678-1.53q.55-1.795.344-3.085-.218-1.294-1.01-2.314-.793-1.02-1.901-1.944m-.98 13.908.03-.1 2.456.751-.823 2.693-.337-.102.069-.225.065-.212q.267-.873-.166-1.687-.433-.814-1.294-1.118m-21.08-6.555 2.456.751-.03.1q-.885-.23-1.699.203-.814.433-1.08 1.306l-.066.212-.068.225-.337-.103zm3.093-1.331-.03.1-2.457-.751.823-2.694.337.103-.072.237-.061.2q-.267.873.166 1.687.432.814 1.294 1.118" paint-order="stroke" id="SvgjsPath1175"></path>
    <circle r="50" transform="matrix(.2014 0 0 .2014 54.796 311.724)" id="SvgjsCircle1174"></circle>
    <circle r="50" transform="matrix(.2014 0 0 .2014 516.204 311.724)" id="SvgjsCircle1173"></circle>
    <path d="M272.096 286.534H252.97c-1.446 0-2.711.903-3.133 2.289a3.318 3.318 0 0 0 1.175 3.705l15.482 11.234zm-8.765 7.47-1.988-1.446h2.47zm55.662-1.476a3.272 3.272 0 0 0 1.205-3.705 3.3 3.3 0 0 0-3.163-2.29h-19.126l5.602 17.23zm-10.301.03-1.988 1.446-.482-1.446zm-23.675 24.668 16.115-11.717-6.175-18.945h-19.94l-6.174 18.945zm-5.602-24.668h11.175l3.463 10.632-9.036 6.566-9.036-6.566zm7.982 26.415 15.482 11.235a3.301 3.301 0 0 0 3.885 0c1.175-.844 1.627-2.35 1.205-3.705l-5.904-18.192zm10.27 0 1.236-.904.753 2.35zm-32.469 11.867c.693 0 1.356-.21 1.958-.632l15.452-11.235-14.639-10.632-5.903 18.192a3.287 3.287 0 0 0 1.205 3.705 3.468 3.468 0 0 0 1.927.602m5.934-12.77 1.235.903-1.988 1.446zm17.048-52.5a3.3 3.3 0 0 0-3.163-2.289c-1.445 0-2.71.934-3.132 2.29l-5.904 18.192h18.103zm-3.916 12.139.753-2.35.753 2.35z" id="SvgjsPath1172"></path>
    <path d="M250.68 344.786c.362.391.754.783 1.175 1.114.392.271.814.512 1.235.723a55.93 55.93 0 0 0 31.897 9.94c11.837 0 22.831-3.705 31.927-9.97.422-.18.844-.422 1.205-.693a6.865 6.865 0 0 0 1.175-1.114c13.373-10.331 22.048-26.476 22.048-44.638 0-31.084-25.301-56.385-56.385-56.385s-56.324 25.301-56.324 56.385c0 18.162 8.674 34.307 22.048 44.638m4.217-5.362 10.663-32.86-27.951-20.301a1.432 1.432 0 0 1-.513-1.567 1.393 1.393 0 0 1 1.326-.963h34.547l10.663-32.861c.391-1.145 2.289-1.145 2.68 0l10.663 32.86h34.548c.602 0 1.144.392 1.325.964.18.573-.03 1.205-.512 1.567l-27.951 20.3 10.752 32.861c.12.392.03.784-.18 1.115-.332.24-.663.512-1.024.753-.271.03-.603-.03-.964-.301l-27.952-20.301-27.951 20.3c-.361.242-.753.272-1.175.151-.27-.21-.542-.391-.813-.602-.18-.331-.301-.723-.18-1.115m7.079 5.452 23.041-16.716 23.042 16.716a49.826 49.826 0 0 1-23.042 5.633c-8.313 0-16.114-2.049-23.041-5.633m58.372-8.885-8.795-27.108 23.132-16.807c.422 2.65.723 5.331.723 8.072-.03 14.006-5.783 26.686-15.06 35.843m9.699-58.282h-28.614l-8.855-27.29c16.415 2.47 30.27 12.922 37.469 27.29m-52.56-27.29-8.855 27.29H240.02c7.169-14.368 21.024-24.82 37.47-27.29m-42.107 41.657 23.132 16.807-8.795 27.108c-9.277-9.127-15.03-21.807-15.03-35.843-.03-2.74.24-5.452.693-8.072" id="SvgjsPath1171"></path>
    <path d="M285.017 367.948c37.38 0 67.8-30.421 67.8-67.8s-30.42-67.8-67.8-67.8c-37.379 0-67.8 30.421-67.8 67.8s30.421 67.8 67.8 67.8m0-129.576c34.066 0 61.777 27.71 61.777 61.776s-27.71 61.776-61.777 61.776c-34.065 0-61.776-27.71-61.776-61.776s27.71-61.776 61.776-61.776" id="SvgjsPath1170"></path>
    <path d="M376.703 176.656h-183.37a3.02 3.02 0 0 0-3.013 3.012v240.96a3.02 3.02 0 0 0 3.012 3.012h183.37a3.02 3.02 0 0 0 3.013-3.012v-240.96a3.02 3.02 0 0 0-3.012-3.012m-3.012 240.96H196.344V182.68h177.347z" id="SvgjsPath1169"></path>
    <path d="M206.976 387.074c10.964 0 19.88 8.916 19.88 19.88a3.02 3.02 0 0 0 3.012 3.012h110.269a3.02 3.02 0 0 0 3.012-3.012c0-10.964 8.916-19.88 19.88-19.88a3.02 3.02 0 0 0 3.011-3.012V216.234a3.02 3.02 0 0 0-3.012-3.012c-10.963 0-19.879-8.916-19.879-19.88a3.02 3.02 0 0 0-3.012-3.012h-110.27a3.02 3.02 0 0 0-3.011 3.012c0 10.964-8.916 19.88-19.88 19.88a3.02 3.02 0 0 0-3.012 3.012v167.858c0 1.657 1.356 2.982 3.012 2.982m3.012-168.009c11.898-1.386 21.325-10.843 22.711-22.71h104.607c1.385 11.897 10.843 21.324 22.71 22.71v162.166c-11.897 1.386-21.325 10.843-22.71 22.71H232.729c-1.385-11.897-10.843-21.324-22.71-22.71V219.065z" id="SvgjsPath1168"></path>
</svg>
</svg><style>@media (prefers-color-scheme: light) { :root { filter: none; } }
@media (prefers-color-scheme: dark) { :root { filter: invert(100%); } }
</style></svg>